<svg width="173" height="173" viewBox="0 0 173 173" fill="none" xmlns="http://www.w3.org/2000/svg">
<path d="M1.43249e-05 37.6278V0H37.8404L111.505 82.7887L121.629 72.6656L115.402 66.4385L122.57 59.2704L159.012 95.7128L151.844 102.881L145.616 96.6536L133.669 108.601L152.006 126.937C157.205 127.404 162.276 129.621 166.248 133.593C175.251 142.596 175.251 157.245 166.248 166.248C161.746 170.749 155.833 173 149.92 173C144.007 173 138.094 170.749 133.593 166.248C129.588 162.243 127.369 157.121 126.927 151.876L108.661 133.609L96.6536 145.617L102.881 151.844L95.7125 159.012L59.2701 122.569L66.4382 115.401L72.6656 121.629L82.9553 111.339L1.43249e-05 37.6278ZM89.4851 138.449L138.448 89.4854L133.622 84.6597L128.797 79.834L79.8337 128.797L89.4851 138.449ZM159.08 140.761C156.554 138.236 153.237 136.973 149.92 136.973C146.603 136.973 143.286 138.236 140.761 140.761C135.71 145.811 135.71 154.029 140.761 159.08V159.079C145.811 164.129 154.029 164.13 159.08 159.08C164.13 154.029 164.13 145.811 159.08 140.761ZM133.593 133.593C135.473 131.713 137.6 130.232 139.869 129.137L126.501 115.769L115.829 126.441L129.177 139.789C130.267 137.55 131.735 135.45 133.593 133.593ZM10.1374 10.1374V33.0745L90.1359 104.158L104.326 89.969L33.2911 10.1374H10.1374Z" fill="white"/>
</svg>
