<svg width="173" height="173" viewBox="0 0 173 173" fill="none" xmlns="http://www.w3.org/2000/svg">
<path d="M149.886 33.4178L88.6872 0.764248C86.7538 -0.267327 84.4291 -0.254149 82.5113 0.801077L23.0429 33.4546C20.9669 34.5943 19.6782 36.7741 19.6782 39.142V85.203C19.6782 121.641 41.2426 154.534 74.6831 169.032L82.9005 172.492C83.705 172.831 84.5612 173 85.4178 173C86.2503 173 87.0873 172.84 87.8722 172.518L97.3871 168.625C97.4023 168.619 97.4175 168.612 97.4324 168.608C131.617 154.323 153.553 121.317 153.32 84.5542V39.142C153.32 36.746 152.001 34.5443 149.886 33.4178ZM140.345 84.5951C140.544 116.105 121.75 144.375 92.4546 156.628L85.4526 159.491L79.7804 157.103C51.1532 144.689 32.6531 116.468 32.6531 85.203V42.9824L85.6773 13.8645L140.345 43.0345V84.5951V84.5951Z" fill="white"/>
</svg>
