<?xml version="1.0" encoding="iso-8859-1"?>
<!-- Generator: Adobe Illustrator 19.0.0, SVG Export Plug-In . SVG Version: 6.00 Build 0)  -->
<svg version="1.1" id="Capa_1" xmlns="http://www.w3.org/2000/svg" xmlns:xlink="http://www.w3.org/1999/xlink" x="0px" y="0px"
	 viewBox="0 0 512.003 512.003" style="enable-background:new 0 0 512.003 512.003;" xml:space="preserve">
<g>
	<g>
		<path d="M443.595,98.902l-181.12-96.64c-5.722-3.053-12.602-3.014-18.278,0.109l-176,96.64c-6.144,3.373-9.958,9.824-9.958,16.832
			v136.32c0,107.84,63.821,205.19,162.79,248.096l24.32,10.24c2.381,1.005,4.915,1.504,7.45,1.504c2.464,0,4.941-0.474,7.264-1.427
			l28.16-11.52c0.045-0.019,0.09-0.038,0.134-0.051c101.171-42.278,166.093-139.962,165.402-248.762v-134.4
			C453.759,108.752,449.855,102.236,443.595,98.902z M415.359,250.364c0.589,93.254-55.034,176.922-141.734,213.184l-20.723,8.474
			l-16.787-7.066C151.391,428.214,96.639,344.694,96.639,252.163V127.209l156.928-86.176l161.792,86.33V250.364z"/>
	</g>
</g>
<g>
</g>
<g>
</g>
<g>
</g>
<g>
</g>
<g>
</g>
<g>
</g>
<g>
</g>
<g>
</g>
<g>
</g>
<g>
</g>
<g>
</g>
<g>
</g>
<g>
</g>
<g>
</g>
<g>
</g>
</svg>
