<svg id="Capa_1" enable-background="new 0 0 511.968 511.968" height="512" viewBox="0 0 511.968 511.968" width="512" xmlns="http://www.w3.org/2000/svg"><g><path d="m511.968 111.354v-111.354h-111.983l-218.001 245.001-29.958-29.958 18.428-18.428-21.213-21.213-107.845 107.846 21.213 21.213 18.429-18.429 35.355 35.356-54.263 54.262c-15.388 1.383-30.394 7.944-42.147 19.698-26.644 26.643-26.644 69.995 0 96.638 13.321 13.321 30.82 19.982 48.319 19.982 17.498 0 34.997-6.661 48.318-19.982 11.851-11.851 18.417-27.009 19.725-42.531l54.058-54.058 35.533 35.534-18.428 18.428 21.213 21.213 107.846-107.846-21.213-21.213-18.429 18.429-30.451-30.451zm-264.818 298.364-144.899-144.899 14.281-14.281 14.281-14.281 144.899 144.899zm-205.955 6.843c7.474-7.473 17.29-11.209 27.107-11.209 9.815 0 19.632 3.736 27.105 11.209 14.946 14.946 14.946 39.266 0 54.212v-.001c-14.944 14.945-39.264 14.947-54.212.001-14.946-14.946-14.946-39.266 0-54.212zm75.425-21.213c-5.563-5.563-11.86-9.947-18.575-13.187l39.561-39.561 31.584 31.584-39.501 39.5c-3.228-6.625-7.572-12.839-13.069-18.336zm365.348-365.348v67.879l-236.744 210.362-41.992-41.991 210.216-236.25z"/><path d="m371.18 81.95h87.321v30h-87.321z" transform="matrix(.707 -.707 .707 .707 52.95 321.733)"/></g></svg>